<svg id="Layer_1" enable-background="new 0 0 512.038 512.038" height="512" viewBox="0 0 512.038 512.038" width="512" xmlns="http://www.w3.org/2000/svg"><g><path d="m159.1 140.754-3.526 18.68c-21.78 5.084-34.079 18.279-45.503 39.603-6.326 11.81-7.153 35.294-2.822 55.342-1.603.428-18.329 3.199-18.329 3.199-20.406-11.794-34.849-34.386-34.849-59.545 0-37.51 30.833-67.919 68.344-67.919 13.51 0 26.106 3.839 36.685 10.64zm87.258 212.499-3.422 4.808c-7.652 2.649-15.924 3.969-24.541 3.683-35.672-1.184-64.611-30.309-65.582-65.987-1.037-38.095 29.308-69.337 67.062-69.791 10.044-.12 19.584 1.958 28.196 5.754-23.32 11.211-39.259 35.329-38.503 63.107.689 25.339 15.493 47.36 36.79 58.426z" fill="#cee1f2"/><g fill="#0023c4"><path d="m316.01 299.936c-1.877-.042-3.773-.022-5.638.057-1.357.049-2.518-.391-3.484-1.327-.627-.605-1.675-1.94-1.657-4.137l.002-.665c0-23.676-9.274-45.879-26.116-62.521-16.845-16.646-39.15-25.676-62.875-25.375-24.058.29-47.386 10.368-64.003 27.651-16.208 16.857-24.789 38.863-24.16 61.963 1.255 46.129 39.951 84.909 86.261 86.445 10.484.351 21.651-1.412 32.274-5.089 10.438-3.614 15.97-15.004 12.356-25.442-3.613-10.438-15.006-15.972-25.442-12.356-5.955 2.061-12.299 3.093-17.861 2.91-25.125-.833-46.925-22.611-47.604-47.555-.334-12.305 4.286-24.079 13.01-33.151 9.241-9.611 22.235-15.216 35.648-15.378 12.968-.167 25.1 4.759 34.28 13.831 9.178 9.068 14.231 21.167 14.231 34.069l-.001.406c-.097 12.466 4.953 24.551 13.855 33.156 8.893 8.596 20.593 13.049 32.955 12.531 1.026-.043 2.07-.053 3.104-.031 25.289.547 46.343 21.521 46.931 46.753.305 13.091-4.583 25.475-13.763 34.871-9.127 9.342-21.286 14.487-34.238 14.487-7.479 0-15.019-1.963-23.047-6.001-23.264-11.701-51.864-3.514-65.114 18.634-8.696 14.537-23.942 23.253-40.832 23.367-25.272-1.013-46.321-21.817-46.994-46.531-.029-1.106-.021-2.232.024-3.343.528-12.796-4.327-25.157-13.323-33.912-8.818-8.583-20.99-13.02-33.409-12.167-1.128.077-2.269.116-3.391.116-26.157 0-47.197-20.465-47.9-46.59-.004-.12-.008-.24-.014-.359.1-8.368 1.596-15.024 4.687-20.886 5.151-9.771 1.407-21.868-8.363-27.02-9.77-5.151-21.867-1.408-27.02 8.363-6.264 11.879-9.309 25.107-9.309 40.44 0 .572.024 1.139.071 1.7.899 22.544 10.274 43.596 26.477 59.391 16.511 16.097 38.307 24.961 61.371 24.961 2.029 0 4.09-.071 6.124-.21 1.156-.078 2.058.225 2.778.926.504.49 1.336 1.609 1.254 3.597-.083 2.021-.098 4.067-.042 6.081.608 22.385 9.941 43.566 26.28 59.641 16.149 15.89 37.353 25.049 59.703 25.791.221.008.442.011.663.011 30.758 0 59.685-16.412 75.49-42.832 2.548-4.259 8.176-5.769 12.814-3.436 13.545 6.813 27.347 10.267 41.021 10.267 23.813 0 46.134-9.423 62.851-26.535 16.77-17.165 25.697-39.807 25.139-63.756-.526-22.627-9.728-43.965-25.906-60.084-16.161-16.101-37.522-25.238-60.148-25.727z"/><path d="m440.999 256.809c-.898-22.541-10.251-43.644-26.414-59.54-16.545-16.271-38.362-25.232-61.434-25.232-2.039 0-4.101.071-6.124.21-1.264.083-2.264-.219-2.971-.908-.751-.73-1.118-1.835-1.062-3.196.083-2.021.098-4.067.042-6.082-.608-22.392-9.964-43.521-26.343-59.494-16.114-15.716-37.624-25.531-60.624-25.531-31.38 0-59.28 15.855-75.17 42.414-2.431 4.063-7.664 5.624-12.165 3.735-13.795-8.557-29.779-13.072-46.321-13.072-48.713 0-88.344 39.44-88.344 87.918 0 31.424 17.183 60.876 44.842 76.861 9.563 5.526 21.796 2.256 27.324-7.308 5.526-9.563 2.255-21.796-7.309-27.324-15.101-8.728-24.857-25.303-24.857-42.229 0-26.422 21.687-47.918 48.344-47.918 9.329 0 18.275 2.581 25.87 7.463.591.38 1.201.729 1.828 1.044 23.263 11.701 51.863 3.515 65.114-18.634 8.542-14.277 23.787-22.838 40.831-22.949 25.279 1.011 46.328 21.629 46.995 46.112.029 1.107.021 2.233-.023 3.344-.523 12.666 4.262 24.88 13.129 33.51 8.815 8.581 21.059 13.014 33.608 12.148 1.119-.077 2.258-.116 3.385-.116 25.715 0 47.203 21.088 47.9 47.009.003.106.007.21.012.316-.129 7.577-1.973 14.79-5.485 21.451-5.151 9.771-1.407 21.868 8.363 27.02 2.976 1.569 6.166 2.313 9.312 2.313 7.182 0 14.125-3.881 17.708-10.675 6.613-12.543 10.109-26.708 10.109-40.962.002-.571-.023-1.138-.07-1.698z"/></g><path d="m442.071 90.038c-5.118 0-10.237-1.953-14.143-5.858-7.81-7.811-7.81-20.474 0-28.284l24-24c7.811-7.811 20.475-7.811 28.285 0s7.81 20.474 0 28.284l-24 24c-3.905 3.905-9.024 5.858-14.142 5.858zm34.136 109.146c11.57-8.999 23.783-21.309 25.14-22.685 10.622-10.778 13.569-26.872 7.509-41-5.833-13.596-18.474-21.892-32.946-21.622-20.16.36-53.918.961-65.6-10.883-.064-.065-.129-.131-.195-.195-12.255-12.087-21.501-41.404-21.05-66.741.258-14.49-8.027-27.114-21.622-32.946-14.13-6.061-30.222-3.112-41 7.51-1.373 1.354-13.679 13.559-22.685 25.138-6.781 8.719-5.211 21.285 3.508 28.066 8.72 6.781 21.285 5.21 28.066-3.508 4.065-5.227 9.531-11.231 13.891-15.8 1.417 29.015 11.663 65.827 32.706 86.665 20.063 20.246 51.438 22.983 85.239 22.807-4.534 4.314-10.401 9.642-15.519 13.622-8.719 6.781-10.289 19.347-3.508 28.066 3.943 5.069 9.841 7.722 15.801 7.722 4.292-.002 8.616-1.378 12.265-4.216z" fill="#ff5cf3"/></g></svg>